<?xml version="1.0" standalone="no"?><!DOCTYPE svg PUBLIC "-//W3C//DTD SVG 1.1//EN" "http://www.w3.org/Graphics/SVG/1.1/DTD/svg11.dtd"><svg t="1701742030936" class="icon" viewBox="0 0 5375 1024" version="1.1" xmlns="http://www.w3.org/2000/svg" p-id="5378" xmlns:xlink="http://www.w3.org/1999/xlink" width="1049.8046875" height="200"><path d="M537.992146 9.195783l12.71385 5.97295 370.49356 199.837844c33.44852 18.004178 55.37778 49.831469 59.38819 85.24253l0.682622 11.9459v399.761016c0 36.008356-18.516145 69.627532-49.319502 90.618185l-10.75131 6.484917-370.49356 199.923172a127.565148 127.565148 0 0 1-107.427773 5.97295l-12.713851-5.97295L60.070812 808.973798a111.95015 111.95015 0 0 1-59.388189-85.242531L0 711.870695V312.195007c0-36.008356 18.516145-69.627532 49.319502-90.618185l10.75131-6.484917L430.564372 15.083405a127.565148 127.565148 0 0 1 107.427774-5.97295zM4592.430652 399.400078v384.999296c8.191474 6.143606 16.382949 13.311146 25.598358 23.550489 26.622292 28.67016 54.268518 50.172781 83.962612 64.507861 32.765898 13.311146 81.914744 20.478686 145.39867 22.526555 56.316386 1.023934 125.943919 2.047869 209.906531 2.047868 45.053109 0 91.130152-1.023934 138.231131-1.023934 46.077043-1.023934 81.914744-2.047869 107.513101-4.095737l-18.430817 74.747203H5067.621494c-58.364255 0-121.848181-1.023934-190.451779-2.047868-69.627532-1.023934-124.919984-7.16754-167.925225-18.430818-43.00524-12.287212-79.866875-37.885569-112.632773-74.747203-14.33508-17.406883-28.67016-25.598357-41.981306-25.598358-24.574423 0-66.555729 47.100978-123.89605 143.350802l-55.292452-49.148846c55.292452-88.05835 103.417364-141.302933 146.422605-159.733751V471.160807h-147.446539v-71.675401h218.098005z m-2050.940398 2.047869v382.951427c8.191474 6.143606 16.382949 13.311146 25.598358 23.550489 24.574423 29.694095 51.196715 51.196715 79.866875 64.507861 31.741963 14.33508 77.819007 22.526555 139.255064 24.574423 54.268518 1.023934 121.848181 2.047869 201.715057 2.047869 49.148846 0 98.297693-1.023934 148.470473-2.047869a2351.465114 2351.465114 0 0 0 115.704576-4.095737l-18.430817 73.723269h-235.504889c-56.316386 0-117.752444-1.023934-183.284239-2.047868-65.531795-1.023934-119.800313-7.16754-160.757685-18.430818-40.957372-12.287212-76.795072-37.885569-108.537035-74.747203-14.33508-17.406883-27.646226-25.598357-39.933438-25.598358-24.574423 0-64.507861 47.100978-119.800313 141.302933l-55.292452-50.17278c53.244583-86.010481 101.369495-138.23113 142.326867-156.661948V469.112939h-145.39867v-67.579664h214.002268z m1023.934298 0v382.951427c8.191474 6.143606 16.382949 13.311146 25.598357 23.550489 24.574423 29.694095 51.196715 51.196715 79.866876 64.507861 32.765898 14.33508 78.842941 22.526555 140.278998 24.574423 54.268518 1.023934 121.848181 2.047869 202.738991 2.047869 47.100978 0 96.249824-1.023934 146.422605-2.047869 49.148846-1.023934 87.034415-2.047869 113.656707-4.095737l-17.406883 73.723269h-232.433086c-56.316386 0-117.752444-1.023934-183.284239-2.047868-66.555729-1.023934-120.824247-7.16754-161.781619-18.430818-40.957372-12.287212-77.819007-37.885569-109.56097-74.747203-14.33508-17.406883-27.646226-25.598357-39.933437-25.598358-24.574423 0-65.531795 46.077043-121.848182 140.278999l-55.292452-49.148846c54.268518-86.010481 102.39343-138.23113 144.374736-156.661948V469.112939h-145.39867v-67.579664h214.002268zM1508.340548 49.299877v931.78021h-72.699335V49.299877h72.699335zM1913.903858 48.275942v154.614079h218.098005v309.228158h79.866875v71.675401h-279.534063c63.483926 139.255064 164.853422 251.887837 303.084552 337.898318l-50.17278 57.340321c-139.255064-95.22589-241.648494-215.026202-306.156355-360.424873-46.077043 163.829488-137.207196 283.6298-273.390458 361.448807l-45.053109-60.412123c131.06359-69.627532 217.074071-181.236371 255.983575-335.85045h-198.643254v-71.675401h212.978334c7.16754-47.100978 11.263277-98.297693 11.263277-151.542276V271.493619h-182.260305v-68.603598h182.260305V48.275942h71.675401zM478.347973 76.690119l-7.679508 3.157131-370.578887 199.923171a37.544258 37.544258 0 0 0-19.454752 25.769014l-0.597295 6.570245v399.846343c0 11.092622 5.290327 21.50262 14.249752 28.584832l5.802295 3.754426 370.49356 199.923172a42.493273 42.493273 0 0 0 32.339258 3.15713l7.679507-3.15713 370.578888-199.923172a37.544258 37.544258 0 0 0 19.454752-25.769013l0.597295-6.570245V312.10968a36.434995 36.434995 0 0 0-14.249753-28.584833l-5.802294-3.754426L510.687231 79.84725a42.493273 42.493273 0 0 0-32.339258-3.157131zM2964.375119 47.252008v82.938678h257.007509v67.579664h-257.007509v87.034415h223.217677v261.103246h-223.217677v313.323895h-68.603598V575.602106c-52.220649 91.130152-133.111459 168.949159-242.672428 233.457019l-46.077044-58.364255c112.632773-57.340321 192.499648-125.943919 240.62456-204.786859h-175.092765v-261.103246h223.217677v-87.034415h-261.103246v-67.579664h261.103246V47.252008h68.603598z m1051.580524 532.445835a1645.121105 1645.121105 0 0 1 230.385217 193.523582l-51.196715 55.292452a1679.252248 1679.252248 0 0 0-223.217677-199.667188zM558.726815 198.282317a35.411061 35.411061 0 0 1 10.495327 19.454752l0.511967 7.508851-1.279918 6.655573-47.356961 136.780557 216.476776 50.002124a39.506798 39.506798 0 0 1 29.86475 18.601474c5.546311 9.130081 6.570245 19.625407 3.242459 29.352783l-3.327787 6.996884-3.242458 4.266393-318.272911 334.143892a41.469339 41.469339 0 0 1-63.142615 2.559836 34.813766 34.813766 0 0 1-8.959425-23.8918l0.682622-6.484917 1.023935-3.58377 92.580726-246.938822-216.476776-33.533848a40.018765 40.018765 0 0 1-31.571308-19.11344 34.984422 34.984422 0 0 1-2.645163-30.120734l3.58377-7.082212 4.522376-5.119672 273.646441-237.723413c14.164424-16.809588 43.858519-18.174834 59.729501-2.730491zM4086.607109 40.169796l69.627533 24.574423a960.791683 960.791683 0 0 1-76.795073 165.877356h133.111459v67.579664h-219.12194c-2.047869 57.340321-5.119671 108.537036-11.263277 151.542276h265.198983v69.627532h-278.510129c-28.67016 123.89605-118.776379 226.28948-270.318654 307.180289l-47.100978-59.388189c129.015721-63.483926 209.906531-145.39867 240.62456-247.7921h-231.409151V449.743515h247.7921c6.143606-44.029175 10.239343-94.201955 12.287211-151.542276h-225.265545v-67.579664h309.228158c31.741963-59.388189 59.388189-122.872116 81.914743-190.451779z m910.277591 7.16754v47.100978c0 63.483926-4.095737 123.89605-10.239343 180.212436h261.103246v71.675401H4975.467408c-5.119671 26.622292-10.239343 52.220649-16.382949 76.795072 92.154087 77.819007 197.619319 189.427845 316.395698 332.778647l-53.244584 52.220649c-94.201955-120.824247-188.403911-226.28948-283.6298-316.395698-49.148846 138.23113-126.967853 243.696363-235.504889 315.371764l-45.053109-60.412124c126.967853-80.89081 208.882597-214.002268 243.696363-400.35831h-220.145874v-71.675401h231.409151c6.143606-52.220649 9.215409-107.513101 10.239343-164.853422V47.252008h73.72327zM3045.351257 576.62604c72.699335 58.364255 134.135393 116.72851 184.308173 176.116699l-49.148846 49.148846c-45.053109-57.340321-105.465233-116.72851-183.284239-180.212436zM501.045183 266.629931l-217.074071 188.574567 204.957515 31.827291c10.836638 0.853279 20.649342 5.546311 27.646226 13.396474 5.887622 6.826229 8.959425 15.188359 8.874097 23.721144l-0.597295 6.484917-1.19459 3.669098-75.344498 200.947106 259.738-272.622507-209.053253-48.380895a39.933438 39.933438 0 0 1-24.233111-11.433933 35.581717 35.581717 0 0 1-10.154015-19.284096l-0.511968-7.338196 1.279918-6.655573 35.667045-102.905397z m825.120388-22.782538l58.278927 4.095737a1487.264567 1487.264567 0 0 1-36.861635 292.845209l-60.412123-17.406883c22.526555-88.05835 35.8377-181.236371 38.909503-279.534063z m734.075564 27.646226H1913.903858v73.72327c0 59.388189-4.095737 114.680641-12.287212 166.90129h158.709816v-240.62456z m1059.771997 77.819007h-155.638013V480.461544h155.638013V349.312626z m-224.241611 0h-154.614079V480.461544h154.614079V349.312626z m-1311.659835-127.991787c28.67016 65.531795 53.244583 140.278999 75.771138 225.265545l-60.412123 14.33508c-18.430817-76.795072-41.981306-150.518342-70.651467-222.193742zM4443.960179 62.611022a1412.005396 1412.005396 0 0 1 179.188502 157.685882l-53.244583 54.268518c-43.00524-51.196715-101.369495-105.465233-177.140634-163.829488z m-2042.748923 0c70.651467 53.244583 130.039656 106.489167 178.164567 159.733751l-52.220649 51.196715c-43.00524-51.196715-101.369495-105.465233-176.116699-162.805554z m1023.934297 0c70.651467 53.244583 130.039656 105.465233 178.164568 158.709817l-53.244584 52.220649c-41.981306-50.172781-100.345561-104.441298-175.092764-162.805554z m375.783887-14.33508c33.789832 45.053109 65.531795 95.22589 96.249824 149.494408l-62.459992 30.718029a963.607502 963.607502 0 0 0-100.345561-148.470473z" fill="#5D9BFF" p-id="5379"></path></svg>