<?xml version="1.0" standalone="no"?><!DOCTYPE svg PUBLIC "-//W3C//DTD SVG 1.1//EN" "http://www.w3.org/Graphics/SVG/1.1/DTD/svg11.dtd"><svg t="1701741620049" class="icon" viewBox="0 0 1024 1024" version="1.1" xmlns="http://www.w3.org/2000/svg" p-id="4299" xmlns:xlink="http://www.w3.org/1999/xlink" width="200" height="200"><path d="M181.15053881 501.36752566l-30.24041404 26.23597564c-1.93317715 1.93317715-2.76168163 4.55677472-2.3474294 7.31845636l7.18037228 42.25372919c0.55233633 3.31401797 0 5.79953147-2.76168163 7.73270862-1.51892491 1.10467265-3.31401797 1.65700898-5.10911105 1.65700898-1.38084082 0-2.76168163-0.27616816-4.14252247-0.96658859l-38.24929081-20.85069643c-2.3474294-1.24275675-5.10911105-1.24275675-7.59462452 0l-36.59228181 20.85069643c-2.89976573 1.51892491-6.62803595 1.38084082-9.25163351-0.69042039-2.76168163-1.93317715-4.83294288-4.41869063-4.28060655-7.73270862l8.69929717-43.08223368c0.41425225-2.62359757-0.41425225-5.3852792-2.34742939-7.31845637l-31.89742302-25.40747114c-2.3474294-2.3474294-3.31401797-5.93761554-2.20934531-9.11354943 1.10467265-3.1759339 3.72827022-5.5233633 7.18037227-6.07569963l41.42522469-7.31845635c2.62359757-0.41425225 4.97102697-2.07126124 6.07569964-4.41869063l19.05560335-40.73480429c1.51892491-3.0378498 4.55677472-4.97102697 7.8707927-4.97102696 3.31401797 0 6.35186779 1.93317715 7.87079269 4.97102696l18.36518293 40.73480429c1.24275675 2.48551348 3.45210207 4.14252247 6.07569964 4.41869063l42.25372918 7.31845635c3.31401797 0.55233633 6.07569962 2.89976573 7.04228819 6.07569963 1.10467265 3.1759339 0.27616816 6.76612003-2.07126122 9.11354943z m0 0M386.48156918 501.36752566l-30.24041401 26.23597564c-1.93317715 1.93317715-2.76168163 4.55677472-2.34742941 7.31845636l7.18037228 42.25372919c0.55233633 3.31401797 0 5.79953147-2.76168165 7.73270862-1.51892491 1.10467265-3.31401797 1.65700898-5.24719512 1.65700898-1.38084082 0-2.76168163-0.27616816-4.14252246-0.96658859l-38.24929081-20.85069643c-2.3474294-1.24275675-5.10911105-1.24275675-7.59462453 0l-36.59228181 20.85069643c-2.89976573 1.51892491-6.62803595 1.38084082-9.25163351-0.69042039-2.76168163-1.93317715-4.83294288-4.41869063-4.28060655-7.73270862l8.69929718-43.08223368c0.41425225-2.62359757-0.41425225-5.3852792-2.34742939-7.18037228l-31.75933894-25.54555523c-2.3474294-2.3474294-3.31401797-5.93761554-2.20934531-9.11354943 1.10467265-3.1759339 3.72827022-5.5233633 7.18037228-6.07569963l41.42522468-7.31845635c2.62359757-0.41425225 4.97102697-2.07126124 6.07569963-4.41869063l19.05560336-40.73480429c1.51892491-3.0378498 4.55677472-4.97102697 7.87079269-4.97102696 3.31401797 0 6.35186779 1.93317715 7.87079269 4.97102696l18.36518295 40.73480429c1.24275675 2.48551348 3.45210207 4.14252247 6.07569961 4.41869063l42.25372919 7.31845635c3.31401797 0.55233633 6.07569962 2.89976573 7.0422882 6.07569963 1.10467265 3.1759339 0.27616816 6.76612003-2.07126124 9.11354943z m0 0M591.95068365 501.36752566l-30.24041402 26.23597564c-1.93317715 1.93317715-2.76168163 4.55677472-2.3474294 7.31845636l7.18037228 42.25372919c0.55233633 3.31401797 0 5.79953147-2.76168165 7.73270862-1.51892491 1.10467265-3.31401797 1.65700898-5.24719513 1.65700898-1.38084082 0-2.76168163-0.27616816-4.14252246-0.96658859L516.14252247 564.74811943c-2.3474294-1.24275675-5.10911105-1.24275675-7.59462454 0L471.95561614 585.59881586c-2.89976573 1.51892491-6.62803595 1.38084082-9.25163353-0.69042039-2.76168163-1.93317715-4.83294288-4.41869063-4.28060655-7.73270862l8.69929719-43.08223368c0.41425225-2.62359757-0.41425225-5.3852792-2.3474294-7.18037228l-31.89742302-25.40747114c-2.3474294-2.3474294-3.31401797-5.93761554-2.2093453-9.11354945 1.10467265-3.1759339 3.72827022-5.5233633 7.18037228-6.07569961l41.42522469-7.31845636c2.62359757-0.41425225 4.97102697-2.07126124 6.07569962-4.41869064l19.05560335-40.73480427c1.51892491-3.0378498 4.55677472-4.97102697 7.87079269-4.97102697 3.31401797 0 6.35186779 1.93317715 7.8707927 4.97102697l18.36518295 40.73480427c1.24275675 2.48551348 3.45210207 4.14252247 6.0756996 4.41869064l42.25372919 7.31845636c3.31401797 0.55233633 6.07569962 2.89976573 7.0422882 6.07569961 1.38084082 3.0378498 0.55233633 6.62803595-1.93317715 8.97546536z m0 0" fill="#FFC300" p-id="4300"></path><path d="M797.55788221 501.36752566l-30.24041403 26.23597564c-1.93317715 1.93317715-2.76168163 4.55677472-2.3474294 7.31845636l7.18037228 42.25372919c0.55233633 3.31401797 0 5.79953147-2.76168164 7.73270862-1.51892491 1.10467265-3.31401797 1.65700898-5.24719514 1.65700898-1.38084082 0-2.76168163-0.27616816-4.14252246-0.96658859L721.8878051 564.61003536c-2.3474294-1.24275675-5.10911105-1.24275675-7.59462451 0L677.70089876 585.46073179c-2.89976573 1.51892491-6.62803595 1.38084082-9.25163351-0.69042042-2.76168163-1.93317715-4.83294288-4.41869063-4.28060655-7.73270861l8.69929718-43.08223367c0.41425225-2.62359757-0.41425225-5.3852792-2.34742939-7.18037229l-31.89742302-25.40747114c-2.3474294-2.3474294-3.31401797-5.93761554-2.20934532-9.11354943 1.10467265-3.1759339 3.72827022-5.5233633 7.18037228-6.07569963l41.4252247-7.31845635c2.62359757-0.41425225 4.97102697-2.07126124 6.07569962-4.41869063l19.05560335-40.73480429c1.51892491-3.0378498 4.55677472-4.97102697 7.87079271-4.97102696 3.31401797 0 6.35186779 1.93317715 7.87079268 4.97102696l18.36518294 40.73480429c1.24275675 2.48551348 3.45210207 4.14252247 6.07569964 4.41869063l42.25372918 7.31845635c3.31401797 0.55233633 6.07569962 2.89976573 7.04228818 6.07569963 1.10467265 3.1759339 0.27616816 6.76612003-2.07126122 9.11354943z m0 0M1003.02699668 501.36752566l-30.24041402 26.23597564c-1.93317715 1.93317715-2.76168163 4.55677472-2.34742941 7.31845636l7.18037228 42.25372919c0.55233633 3.31401797 0 5.79953147-2.76168165 7.73270862-1.51892491 1.10467265-3.31401797 1.65700898-5.24719513 1.65700898-1.38084082 0-2.76168163-0.27616816-4.14252247-0.96658859l-38.24929079-20.85069643c-2.3474294-1.24275675-5.10911105-1.24275675-7.59462452 0l-36.59228182 20.85069643c-2.89976573 1.51892491-6.62803595 1.38084082-9.2516335-0.69042039-2.76168163-1.93317715-4.83294288-4.41869063-4.28060656-7.73270862l8.69929718-43.08223368c0.41425225-2.62359757-0.41425225-5.3852792-2.3474294-7.18037228l-31.897423-25.40747114c-2.3474294-2.3474294-3.31401797-5.93761554-2.20934534-9.11354945 1.10467265-3.1759339 3.72827022-5.5233633 7.18037229-6.07569961l41.42522469-7.31845636c2.62359757-0.41425225 4.97102697-2.07126124 6.07569963-4.41869064l19.05560336-40.73480427c1.51892491-3.0378498 4.55677472-4.97102697 7.87079268-4.97102697 3.31401797 0 6.35186779 1.93317715 7.87079269 4.97102697l18.36518295 40.73480427c1.24275675 2.48551348 3.45210207 4.14252247 6.07569963 4.41869064l42.25372918 7.31845636c3.31401797 0.55233633 6.07569962 2.89976573 7.0422882 6.07569961 1.38084082 3.0378498 0.41425225 6.62803595-1.93317715 8.97546536z m0 0" fill="#DDDDDD" p-id="4301"></path></svg>